# xmcd
#
# Track frame offsets: 
#        150
#        19575
#        39300
#        58215
#        75036
#        96541
#        116798
#        137374
#        162247
#        183559
#
# Disc length: 2719 seconds
#
# Revision: 0
# Processed by: cddbd v1.5.2PL0 Copyright (c) Steve Scherf et al.
# Submitted via: ExactAudioCopyFreeDBPlugin 1.0
#
DISCID=790a9d0a
DTITLE=SLOP - Draw the line
DYEAR=2012
DGENRE=Classic Rock
TTITLE0=DOA
TTITLE1=Overfed
TTITLE2=Gone
TTITLE3=Make Me
TTITLE4=Weak Again
TTITLE5=Together Alone
TTITLE6=Mr. Z
TTITLE7=WCH
TTITLE8=Faceless
TTITLE9=Partners In Crime
EXTD=
EXTT0=
EXTT1=
EXTT2=
EXTT3=
EXTT4=
EXTT5=
EXTT6=
EXTT7=
EXTT8=
EXTT9=
PLAYORDER=
